<svg width="1134" height="203" viewBox="0 0 1134 203" fill="none" xmlns="http://www.w3.org/2000/svg">
<path d="M14.1923 33.8385L40.0144 5.6993L116.557 145.643L99 196L14.1923 33.8385Z" fill="#E93333"/>
<rect x="99" y="6" width="34" height="190" fill="#E93333"/>
<rect x="6" y="6" width="34" height="190" fill="#E93333"/>
<rect x="191" y="6" width="34" height="190" fill="#E93333"/>
<rect x="416.69" y="40.0001" width="34" height="156" fill="#E93333"/>
<rect x="553.69" y="6.00012" width="34" height="190" fill="#E93333"/>
<rect x="994.69" y="9.00012" width="34" height="187" fill="#E93333"/>
<rect x="726.69" y="6.00012" width="34" height="190" fill="#E93333"/>
<rect x="899.69" y="10.0001" width="34" height="186" fill="#E93333"/>
<rect x="504.69" y="6.00012" width="34" height="141" transform="rotate(90 504.69 6.00012)" fill="#E93333"/>
<rect x="1131.21" y="178.479" width="34" height="159.07" transform="rotate(135 1131.21 178.479)" fill="#E93333"/>
<rect x="1109.17" width="34" height="159.07" transform="rotate(45 1109.17 0)" fill="#E93333"/>
<rect width="89.7439" height="27.6826" transform="matrix(1 0 0.00795687 0.999968 223.59 5.89038)" fill="#E93333"/>
<rect width="89.7439" height="27.6826" transform="matrix(0.999936 0.0113357 -0.00337897 0.999994 586.784 83.0001)" fill="#E93333"/>
<rect width="89.7439" height="27.6826" transform="matrix(0.999936 0.0113357 -0.00337897 0.999994 586.784 6.00012)" fill="#E93333"/>
<rect width="89.7439" height="27.6826" transform="matrix(1 0 0.00795687 0.999968 224 87)" fill="#E93333"/>
<rect width="89.7439" height="27.6826" transform="matrix(1 0 0.00795687 0.999968 224 168)" fill="#E93333"/>
<rect width="89.7439" height="27.6826" transform="matrix(0.999936 0.0113357 -0.00337897 0.999994 759.784 168)" fill="#E93333"/>
</svg>
